<mxfile host="app.diagrams.net" modified="2023-05-27T15:58:34.472Z" agent="Mozilla/5.0 (Windows NT 10.0; Win64; x64) AppleWebKit/537.36 (KHTML, like Gecko) Chrome/113.0.0.0 Safari/537.36" version="21.3.4" etag="i3-rGAUqCZI6ilTpWT-1" type="github">
  <diagram name="페이지-1" id="yHSVWTj9rCu8UCfshHnL">
    <mxGraphModel>
      <root>
        <mxCell id="0" />
        <mxCell id="1" parent="0" />
      </root>
    </mxGraphModel>
  </diagram>
</mxfile>
